<?xml version="1.0" encoding="UTF-8"?>
<svg viewBox="0 0 326.61465 373.44644" xmlns="http://www.w3.org/2000/svg" xmlns:xlink="http://www.w3.org/1999/xlink">
 <defs>
  <clipPath id="i">
   <path d="m-42.257 562.88h172.54a1.7203 1.7203 0 0 1 1.7203 1.7203v191.83a1.7203 1.7203 0 0 1 -1.7203 1.7203h-172.54a1.7203 1.7203 0 0 1 -1.7203 -1.7203v-191.83a1.7203 1.7203 0 0 1 1.7203 -1.7203"/>
  </clipPath>
  <clipPath id="h">
   <path d="m194.36 452.4h186.47a1.6587 1.6587 0 0 1 1.6587 1.6587v101.1a1.6587 1.6587 0 0 1 -1.6587 1.6587h-186.47a1.6587 1.6587 0 0 1 -1.6587 -1.6587v-101.1a1.6587 1.6587 0 0 1 1.6587 -1.6587"/>
  </clipPath>
  <clipPath id="g">
   <path d="m422.23 323.42h119.52a1.6587 1.6587 0 0 1 1.6587 1.6587v127.51a1.6587 1.6587 0 0 1 -1.6587 1.6587h-119.52a1.6587 1.6587 0 0 1 -1.6587 -1.6587v-127.51a1.6587 1.6587 0 0 1 1.6587 -1.6587"/>
  </clipPath>
  <linearGradient id="b">
   <stop stop-color="#dbdfdd" offset="0"/>
   <stop stop-opacity=".93007" offset=".48473"/>
   <stop stop-color="#dddddf" offset="1"/>
  </linearGradient>
  <linearGradient id="f" x1="408.91" x2="433.34" y1="398.92" y2="623.14" gradientUnits="userSpaceOnUse">
   <stop stop-color="#dbdfdd" offset="0"/>
   <stop offset=".67891"/>
   <stop stop-color="#dddddf" offset="1"/>
  </linearGradient>
  <linearGradient id="a" x1="419.54" x2="347.77" y1="455.5" y2="527.78" gradientUnits="userSpaceOnUse">
   <stop stop-color="#dbdfdd" offset="0"/>
   <stop stop-opacity=".93007" offset=".5"/>
   <stop stop-color="#dddddf" offset="1"/>
  </linearGradient>
  <linearGradient id="e" x1="417.35" x2="395.77" y1="470.04" y2="598" gradientTransform="matrix(-.5 .86603 .86603 .5 169.89 -98.086)" gradientUnits="userSpaceOnUse" xlink:href="#b"/>
  <linearGradient id="d" x1="417.35" x2="395.77" y1="470.04" y2="598" gradientTransform="matrix(-.5 .86603 .86603 .5 -68.958 132.85)" gradientUnits="userSpaceOnUse" xlink:href="#b"/>
  <radialGradient id="c" cx="364.82" cy="439.24" r="19.179" fx="372.86" fy="433.21" gradientUnits="userSpaceOnUse">
   <stop stop-color="#c60000" offset="0"/>
   <stop offset="1"/>
  </radialGradient>
 </defs>
 <g transform="translate(-201.92 -249.7)">
  <path transform="translate(.40177,-2.8125)" d="m382.5 439.24a17.679 17.679 0 1 1 -35.357 0 17.679 17.679 0 1 1 35.357 0z" fill="url(#c)" opacity=".8"/>
  <path d="m525.63 343.81c-2.7601-4.7806-9.4324-7.0164-19.179-6.9692 7.0085 0.28273 11.816 2.153 13.898 5.76 10.473 18.14-51.325 73.403-138.01 123.45s-165.45 75.937-175.92 57.797c-2.0868-3.6145-1.3042-8.7306 1.9722-14.959-4.9334 8.4356-6.33 15.349-3.5655 20.137 11.65 20.178 92.907-4.926 181.5-56.074s150.96-108.97 139.31-129.14zm-317.24 165.08c6.519-11.147 19.243-24.968 36.614-40.083-18.202 15.564-31.033 29.474-36.614 40.083zm36.614-40.083c24.743-21.156 59.419-45.347 99.412-68.438s78.282-41.025 108.97-51.875c-31.189 10.723-69.468 28.416-109.26 51.388s-74.251 47.276-99.131 68.925zm208.39-120.31c21.802-7.4953 40.147-11.593 53.063-11.655-11.977-0.48316-30.456 3.6638-53.063 11.655z" fill="url(#a)" stroke="#000" stroke-width="3"/>
  <path d="m204.82 343.81c2.7601-4.7806 9.4324-7.0164 19.179-6.9692-7.0085 0.28273-11.816 2.153-13.898 5.76-10.473 18.14 51.325 73.403 138.01 123.45s165.45 75.937 175.92 57.797c2.0868-3.6145 1.3042-8.7306-1.9722-14.959 4.9334 8.4356 6.33 15.349 3.5655 20.137-11.65 20.178-92.907-4.926-181.5-56.074s-150.96-108.97-139.31-129.14zm317.24 165.08c-6.519-11.147-19.243-24.968-36.614-40.083 18.202 15.564 31.033 29.474 36.614 40.083zm-36.614-40.083c-24.743-21.156-59.419-45.347-99.412-68.438s-78.282-41.025-108.97-51.875c31.189 10.723 69.468 28.416 109.26 51.388s74.251 47.276 99.131 68.925zm-208.39-120.31c-21.802-7.4953-40.147-11.593-53.063-11.655 11.977-0.48316 30.456 3.6638 53.063 11.655z" fill="url(#e)" stroke="#000" stroke-width="3"/>
  <path d="m365.23 251.2c-5.5202 0-10.793 4.6604-15.625 13.125 3.7491-5.9282 7.7724-9.1562 11.938-9.1562 20.946 0 37.906 81.151 37.906 181.25s-16.96 181.25-37.906 181.25c-4.1737 0-8.213-3.2358-11.969-9.1875 4.8387 8.4902 10.127 13.156 15.656 13.156 23.3 0 42.188-82.923 42.188-185.22s-18.888-185.22-42.188-185.22zm-15.656 357.28c-6.3939-11.219-12.002-29.149-16.406-51.75 4.3773 23.545 10.009 41.613 16.406 51.75zm-16.406-51.75c-5.9501-32.006-9.5625-74.132-9.5625-120.31s3.6124-88.307 9.5625-120.31c-6.3085 32.372-10.125 74.369-10.125 120.31s3.8165 87.941 10.125 120.31zm0-240.62c4.4098-22.629 10.034-40.565 16.438-51.781-6.4067 10.13-12.055 28.207-16.438 51.781z" fill="url(#f)" stroke="#000" stroke-width="3"/>
  <path transform="translate(239.06 -231.03)" d="m-34.025 574.75c2.7601-4.7806 9.4323-7.0164 19.179-6.9692-7.0085 0.28273-11.816 2.153-13.898 5.76-10.473 18.14 51.325 73.403 138.01 123.45s165.45 75.937 175.92 57.797c2.0868-3.6145 1.3042-8.7306-1.9722-14.959 4.9334 8.4356 6.33 15.349 3.5655 20.137-11.65 20.178-92.907-4.926-181.5-56.074s-150.96-108.97-139.31-129.14zm317.24 165.08c-6.519-11.147-19.243-24.968-36.614-40.083 18.202 15.564 31.033 29.474 36.614 40.083zm-36.614-40.083c-24.743-21.156-59.419-45.347-99.412-68.438s-78.282-41.025-108.97-51.875c31.189 10.723 69.468 28.416 109.26 51.388s74.251 47.276 99.131 68.925zm-208.39-120.31c-21.802-7.4953-40.147-11.593-53.063-11.655 11.977-0.48316 30.456 3.6638 53.063 11.655z" clip-path="url(#i)" fill="url(#d)" stroke="#000" stroke-width="3"/>
  <path d="m525.63 343.81c-2.7601-4.7806-9.4324-7.0164-19.179-6.9692 7.0085 0.28273 11.816 2.153 13.898 5.76 10.473 18.14-51.325 73.403-138.01 123.45s-165.45 75.937-175.92 57.797c-2.0868-3.6145-1.3042-8.7306 1.9722-14.959-4.9334 8.4356-6.33 15.349-3.5655 20.137 11.65 20.178 92.907-4.926 181.5-56.074s150.96-108.97 139.31-129.14zm-317.24 165.08c6.519-11.147 19.243-24.968 36.614-40.083-18.202 15.564-31.033 29.474-36.614 40.083zm36.614-40.083c24.743-21.156 59.419-45.347 99.412-68.438s78.282-41.025 108.97-51.875c-31.189 10.723-69.468 28.416-109.26 51.388s-74.251 47.276-99.131 68.925zm208.39-120.31c21.802-7.4953 40.147-11.593 53.063-11.655-11.977-0.48316-30.456 3.6638-53.063 11.655z" clip-path="url(#h)" fill="url(#a)" stroke="#000" stroke-width="3"/>
  <path d="m525.63 343.81c-2.7601-4.7806-9.4324-7.0164-19.179-6.9692 7.0085 0.28273 11.816 2.153 13.898 5.76 10.473 18.14-51.325 73.403-138.01 123.45s-165.45 75.937-175.92 57.797c-2.0868-3.6145-1.3042-8.7306 1.9722-14.959-4.9334 8.4356-6.33 15.349-3.5655 20.137 11.65 20.178 92.907-4.926 181.5-56.074s150.96-108.97 139.31-129.14zm-317.24 165.08c6.519-11.147 19.243-24.968 36.614-40.083-18.202 15.564-31.033 29.474-36.614 40.083zm36.614-40.083c24.743-21.156 59.419-45.347 99.412-68.438s78.282-41.025 108.97-51.875c-31.189 10.723-69.468 28.416-109.26 51.388s-74.251 47.276-99.131 68.925zm208.39-120.31c21.802-7.4953 40.147-11.593 53.063-11.655-11.977-0.48316-30.456 3.6638-53.063 11.655z" clip-path="url(#g)" fill="url(#a)" stroke="#000" stroke-width="3"/>
 </g>
</svg>
