<?xml version='1.0' encoding='utf-8'?>
<svg xmlns="http://www.w3.org/2000/svg" version="1.1" width="720px" height="1358px" viewBox="0 0 720 1358"> <g id="layer1"> <g style="fill:rgb(0,0,0); fill-opacity:1.0; stroke-linejoin: miter"> <path d="M353.7614,478.7853C335.85834,479.99185,321.87793,482.28018,307.6208,486.35355C269.92883,497.14053,236.10925,518.51385,210.41138,547.83246C182.0481,580.16925,165.12566,619.64655,161.10252,662.8453C160.44878,669.96124,160.44878,691.51044,161.10252,698.42535C164.145,730.20856,173.80064,759.20074,190.14471,785.80414C197.13495,797.1442,205.75964,808.4849,214.63574,817.88885C216.04376,819.39764,217.55243,821.00714,217.95477,821.4593C219.23706,822.8676,228.1131,831.0898,231.05505,833.6296C262.53632,860.53485,301.38483,877.1807,342.44617,881.32965C356.07465,882.71295,371.33746,882.73785,384.56363,881.3553C420.74698,877.5837,454.94382,864.3571,484.23734,842.7828C527.7129,810.7486,556.6293,762.747,564.34875,709.7415C565.958,698.67804,566.2095,694.6799,566.2095,680.4476C566.2095,668.8309,566.1592,666.91974,565.65625,661.8405C563.0414,635.866,556.5791,613.36115,545.2388,590.68036C537.1924,574.56256,527.9895,560.9841,515.3417,546.5506C511.8716,542.6032,502.7441,533.5008,498.4695,529.72894C461.07907,496.8892,414.98886,479.2377,365.2022,478.65933C360.7013,478.60904,355.57178,478.65933,353.7614,478.7853 Z M348.3553,480.9727C333.36902,484.2913,322.406,488.79263,311.26678,496.21036C295.02332,507.0229,282.02338,522.53705,274.5807,540.03766C270.73346,549.09,268.26935,558.69574,267.08752,569.0551C266.6349,573.3299,266.6853,585.17303,267.23834,589.42267C269.1997,605.18854,273.8766,618.61554,281.84747,631.2635C294.06787,650.6254,313.203,665.63654,335.0285,672.9035C346.11743,676.6254,355.92377,678.2094,367.71667,678.2343C377.19632,678.23456,385.29282,679.56744,395.09933,682.7608C414.6871,689.09735,431.88608,701.393,444.5842,718.064C464.95145,744.81854,470.53372,780.5998,459.3442,812.7098C449.76407,840.2432,427.91318,863.0496,401.15915,873.4345C399.1476,874.18866,396.65823,875.1945,395.6273,875.62177C385.8461,879.6707,377.77463,880.9528,362.3106,880.9277C345.9917,880.9028,330.04993,878.9156,314.1333,874.94293C262.61163,862.04315,218.20612,829.3046,190.62244,783.86774C171.13524,751.783,161.12767,714.71906,161.85686,677.3034C161.95744,673.0035,162.13347,667.9747,162.28429,666.1142C164.82396,633.2248,174.70586,602.85004,191.90485,575.08966C202.84283,557.46344,217.0998,541.04376,233.31812,527.3901C261.5808,503.6281,295.9286,488.01297,332.2627,482.4561C338.67456,481.47525,346.34375,480.62088,348.85828,480.62088C349.96454,480.59537,349.9394,480.62088,348.3553,480.9727 Z M372.1673,545.821C379.20798,546.8525,384.96603,549.66876,389.94467,554.4715C396.38174,560.7072,399.65054,568.4266,399.65067,577.4786C399.65067,586.25433,396.3315,594.04926,389.99515,600.1851C383.83456,606.1445,376.49234,609.1368,367.96826,609.1364C362.33582,609.16156,358.08636,608.1557,353.28375,605.6917C344.28192,601.08954,337.9203,592.3896,336.2608,582.4069C335.90875,580.26996,335.90875,574.4362,336.2608,572.29877C338.4483,559.0723,348.88336,548.41156,361.9334,546.0727C366.03204,545.3437,368.5464,545.2679,372.1673,545.821 Z"/> </g> <g style="fill:rgb(0,0,0); fill-opacity:1.0; stroke-linejoin: miter"> <path d="M360.80945,760.0368C350.3241,762.3001,342.0766,768.9124,337.90253,778.392C332.47125,790.6879,335.3379,805.0457,345.01855,814.2492C349.4944,818.4987,354.62384,821.189,360.83466,822.54706C363.77655,823.1756,370.38953,823.1756,373.3566,822.5214C379.99496,821.08856,385.80338,817.8449,390.27914,813.06744C396.21323,806.75555,399.33127,798.4078,398.92892,789.93427C398.6774,784.9046,397.6465,781.13336,395.33328,776.6071C393.72403,773.48944,392.36618,771.6286,389.87692,769.0639C385.62735,764.7137,380.97568,762.02313,374.7396,760.33856C372.82855,759.81024,371.7724,759.7098,367.82477,759.6092C363.82684,759.5336,362.8462,759.5844,360.80945,760.0368 Z"/> </g> <g style="fill:rgb(0,0,0); fill-opacity:1.0; stroke-linejoin: miter"> </g> <g style="fill:rgb(0,0,0); fill-opacity:1.0; stroke-linejoin: miter"> <path d="M568.91614,680.67206L568.91614,680.6746C568.91614,794.2144,476.8716,886.2592,363.32916,886.2592L363.32916,886.26166C249.78662,886.2591,157.74223,794.2143,157.74223,680.67194L157.74223,680.6745C157.7423,567.1296,249.78674,475.0851,363.32928,475.08524L363.32928,475.0878C476.87155,475.08524,568.91626,567.1297,568.91614,680.67206L568.91614,680.6746 M555.5907,680.67206L555.5907,680.6746C555.5908,574.4892,469.51224,488.41068,363.32928,488.41068L363.32928,488.41324C257.14624,488.41055,171.06767,574.4891,171.06761,680.67194L171.06761,680.6745C171.06761,786.8549,257.14612,872.9338,363.32916,872.9339L363.32916,872.9362C469.51224,872.9339,555.5907,786.85504,555.5907,680.67206 Z"/> </g> <g style="fill:rgb(0,0,0); fill-opacity:1.0; stroke-linejoin: miter"> <path d="M578.13135,635.9461L577.12683,632.2835L574.93884,623.39496L572.37573,614.6235L569.44653,605.9914L566.1625,597.5218L562.46045,589.0706L562.3688,588.363L566.10376,596.8166L569.41833,605.2863L572.3771,613.9157L574.9702,622.68695L577.18823,631.5765L578.13135,635.9461 M249.27814,854.7038L256.72656,859.55817Q318.4546,898.5218,403.3929,891.04Q461.31223,881.70746,504.90897,846.0638Q534.0205,822.2789,552.99036,791.18243L541.4182,804.8963Q566.80786,768.0876,575.06836,734.7044Q584.464,694.52496,582.4136,671.26276Q582.84985,638.5026,563.88794,591.4987L572.07043,606.13336Q561.5587,575.1989,512.57434,524.17816L510.58762,522.7519Q528.8944,541.0733,537.9496,553.6723Q550.2438,570.3934,553.8097,579.992Q549.56335,571.93915,544.7389,564.89764Q529.3921,544.8726,512.03503,526.8754Q479.91837,497.8638,437.41,482.78824Q402.85678,474.78983,381.5947,472.3666Q333.4618,468.96475,314.3465,477.28763Q275.67657,489.35794,257.2328,502.54007Q238.59973,515.1955,235.4403,518.4655Q223.55133,528.59235,206.89465,545.80853L198.01532,552.37115L196.63849,551.59015Q201.97833,544.3293,208.10785,537.3339Q211.01562,533.2934,227.59564,517.8118Q246.6322,501.38492,277.48737,482.8074Q244.59412,494.51505,235.09937,504.79816Q197.08423,534.4664,175.21397,575.7933Q148.29045,641.8493,151.46214,681.7209Q152.22453,729.16754,172.4771,772.1204Q208.98718,842.1744,241.1347,865.3543Q189.2143,827.488,159.36174,780.2459Q140.32903,743.492,136.53111,703.1243Q124.633224,600.44,204.26776,511.90985Q161.78069,549.70074,138.64873,628.1517Q131.859,665.2271,135.88823,706.56134Q139.5714,741.5651,161.3347,794.63605Q147.4218,772.488,136.33281,727.83624Q126.77019,672.13544,135.00102,636.4339Q140.29149,611.4372,142.4027,606.6043L139.74944,620.8145Q147.82286,587.2133,170.43913,550.5784Q180.98283,534.13556,194.92712,518.8516Q202.90448,509.25812,236.31903,480.65042Q265.71155,458.78433,320.74426,445.15384Q376.58267,435.7349,412.33585,444.08524L422.77695,446.29337Q437.64468,450.9695,426.63553,449.2288Q458.2844,456.8129,469.49045,461.0403Q474.71823,462.85257,496.68405,475.75516Q581.1012,531.54486,594.8955,614.22894Q599.5593,629.77826,600.00073,687.0092L598.8578,675.15375Q593.1267,729.86505,585.2654,749.54987Q573.6365,781.414,565.24536,793.8952Q590.4695,733.33514,592.01514,703.2702Q589.7727,640.9626,574.734,601.0085Q557.6758,556.29694,523.87683,522.6783Q478.52737,481.0491,436.6813,469.87357Q493.3123,490.5424,523.18884,522.34674Q557.0902,555.8571,574.2544,600.44464Q591.20154,645.1291,588.23987,692.86774L585.3436,726.78973L583.13464,736.0594Q577.14026,760.1447,558.7272,795.5174Q511.96988,878.15106,409.8524,899.81586Q373.03284,908.82916,330.10223,896.5173Q288.64417,883.89056,280.52856,879.3068Q257.1261,867.01886,249.27814,854.7038 M146.95335,721.8139L147.85368,729.9664Q148.78764,737.99945,150.78087,746.4511L153.87968,755.7415Q160.50761,774.2764,170.23674,791.4664Q179.72581,808.28094,192.44849,823.8431Q198.35834,831.1785,206.05835,838.8437L213.20502,844.6425L216.22998,845.6431Q201.86859,832.4665,190.00745,817.0993L184.16156,809.175Q178.54173,801.1934,173.71184,792.9135Q153.78099,758.16327,146.95335,721.8139 M154.41106,591.1176L150.89507,600.29156L147.73631,609.71576L145.9622,616.95734L145.65636,619.9239L148.41289,610.29596L151.54747,600.8968L153.95744,592.60187L154.41106,591.1176 M271.68158,466.79276L262.62982,471.20023L253.83044,475.9628Q245.18695,480.8848,237.01099,486.51065L233.23627,488.6331L235.30804,485.72696Q218.38086,497.52652,204.34424,511.41205Q189.64233,525.9639,178.17033,542.06793L172.6558,550.12787L167.15929,559.1464L164.23814,566.40936L164.98839,566.46124Q174.5584,549.0839,186.69702,533.8084Q192.86932,526.0218,199.89948,518.57745L206.94977,511.43585L214.15723,504.73224Q223.54858,496.47855,225.67401,495.37027L219.41144,501.41776Q213.30432,507.55267,207.82837,513.95746L219.58276,503.4084Q227.0791,497.00296,235.26947,491.14615Q255.38684,477.4965,257.70673,475.62613Q264.72937,470.83292,271.68158,466.79276 M281.32117,461.47708L272.01678,465.47977Q260.53406,470.82266,259.27893,471.3799L267.17664,468.2825L274.9502,464.9247L281.32117,461.47708"/> </g> <g style="fill:rgb(0,0,0); fill-opacity:1.0; stroke-linejoin: miter"> <path d="M447.67044,456.97708L444.72916,456.277L435.95688,453.65543L427.103,451.36746L418.18692,449.41678L409.2275,447.8046L400.20267,446.52676L391.0237,445.57767L391.32944,445.35538L400.5179,446.3168L409.54575,447.606L418.51303,449.23026L427.43643,451.19412L436.2969,453.49454Q448.16696,457.02286,447.67044,456.97708 M476.3217,908.2895L484.25247,904.2913Q557.3202,866.25775,598.3623,780.857Q600.8052,777.91156,607.69727,756.19855Q610.23706,747.2895,612.09595,738.2481Q614.48425,726.4548,611.5425,737.2088Q613.1041,727.6308,615.08594,720.4266Q619.2162,697.1713,614.9586,655.7414Q611.9729,623.1059,590.5591,577.1663L586.3219,569.1652L593.5995,588.37494L592.8722,587.61786Q570.683,542.66754,547.3092,520.1154Q521.86975,493.44498,489.56277,475.35843Q452.76614,453.33865,395.9155,445.61868L417.28403,446.41592Q376.7513,438.40128,299.5938,457.9114L295.38666,459.46085L343.98145,449.61966Q362.61346,447.51212,378.73404,448.5618L356.3642,449.68167Q331.48737,453.21707,306.62024,458.47745L298.93378,461.16568Q245.9107,480.49844,215.72754,508.32843L178.35216,550.57074L168.65526,564.97797Q143.83366,600.24115,137.74986,634.1021Q129.55388,669.38654,132.03777,705.1434Q131.94109,709.8339,135.44725,732.03424Q149.16508,782.0557,147.21373,787.4067Q122.99242,738.9135,123.45085,668.0787Q117.0822,705.6695,120.67854,717.46686Q127.69017,775.0203,157.70073,822.59845Q196.94385,875.90375,243.38531,903.1353Q292.45673,932.04535,349.32135,937.07086Q437.569,941.46,481.0909,922.8614Q417.70663,951.4028,352.30872,954.69745Q301.386,952.9052,255.46246,930.5417Q200.13434,904.0201,161.6981,856.44354Q123.77312,807.11395,109.35475,752.9826Q122.52489,816.8775,184.42755,885.2127Q236.74432,926.56195,267.12885,937.01935Q293.3067,950.31464,368.1339,961.1246Q326.78015,960.70514,287.65356,948.2314Q242.2992,935.7111,190.55853,893.2751Q171.71416,875.805,168.60014,871.6508L180.2285,881.7775L179.52324,880.5955Q153.01604,856.4388,126.86565,806.8317Q105.88548,763.0002,97.878006,705.0738Q94.84105,653.3907,110.733505,604.2067Q123.508896,558.82794,166.28307,507.20282L174.1215,499.1945Q183.65552,491.64127,176.56108,499.53433Q207.76935,466.61868,215.57428,462.11685Q232.95746,450.27603,250.89209,441.63126Q353.95728,394.68167,438.75272,428.9744Q465.94925,438.26114,512.55676,465.61978L499.07474,459.16898Q508.40927,463.34305,555.03577,505.01825Q584.76807,536.7525,596.3627,559.21454L595.82874,559.81305Q562.0028,516.3121,556.3379,511.63483Q546.61523,500.29813,520.10547,480.10428Q440.3663,441.1924,405.97556,439.56485Q349.12567,431.60123,294.1056,448.9467Q237.03998,468.91702,204.72687,499.81802Q295.89453,422.78214,414.52707,441.2211Q478.02866,452.01688,538.2816,499.21024Q561.9407,516.5026,595.9962,569.35785Q618.4487,598.81415,626.7644,664.51495Q632.0879,723.1938,611.73975,778.29913Q594.0016,826.35944,563.64404,852.48724Q514.45044,904.2668,476.3217,908.2895 M285.97394,933.6757L293.4757,936.9887Q301.04315,940.18854,308.82916,942.91534L318.00916,945.1525L327.6264,946.93414L337.28882,948.35394L347.14777,949.4261L356.99396,950.1214L366.8062,950.445L376.5643,950.4017L386.24857,949.99896L396.1102,949.21857L405.97885,948.0606L415.70798,946.54425L425.27963,944.68365L435.54745,942.1574L444.53513,938.8547L448.95016,936.1031Q443.10867,937.4323,432.61044,940.3061L423.27878,942.4255L413.7778,944.21564L404.1237,945.66254L394.3342,946.75336L384.61594,947.46564L375.0164,947.80963L365.3465,947.7972L355.62585,947.42035L345.87488,946.67413L336.12958,945.5568L326.5833,944.0977L317.0686,942.278L307.6057,940.0982Q299.64032,938.23566,285.97394,933.6757 M160.64928,851.4609L166.81102,859.10394L173.31853,866.5887L180.16747,873.89386L185.07556,877.7067L174.38231,866.36835L167.89061,858.9814L160.64928,851.4609 M104.50731,664.00616L103.770584,674.0511Q102.6859,694.04535,104.58391,713.9433L102.5732,712.2459Q104.41731,732.75934,109.11961,752.0192Q111.42439,761.5645,114.638626,771.5196L117.955185,781.1275Q121.43675,790.6125,125.49498,799.55914Q129.44548,808.3166,134.35179,817.3205L139.94005,825.71844L143.53392,829.1683Q133.58672,812.07294,130.95995,806.20844Q126.7094,797.5634,123.00096,788.3803Q115.48012,769.72174,110.840744,750.168L108.7397,740.5195L106.981186,730.6999L106.39073,725.483Q111.02562,744.9494,114.721085,753.63007Q109.91597,734.8455,107.88277,714.78937Q106.956406,704.5964,106.52107,695.36835Q105.49419,687.1862,104.98491,678.81915Q104.47594,669.4223,104.50731,664.00616 M104.754776,651.4046L103.54219,661.4577L102.7094,671.5529L101.656235,680.3072L102.627945,674.18524L104.024765,665.8117L104.56578,657.35016L104.754776,651.4046"/> </g> <g style="fill:rgb(0,0,0); fill-opacity:1.0; stroke-linejoin: miter"> <path d="M369.422,392.42758L373.25256,392.45355Q388.58374,392.661,404.0592,394.52835Q419.74738,396.90652,434.1415,400.1817Q462.9298,406.73193,486.54196,416.86975Q532.29724,437.61597,567.3823,471.09106Q543.11945,447.65085,510.00842,429.60504L493.03424,420.98846Q475.99792,412.9464,458.7132,407.20197Q441.4285,401.4576,423.89532,398.01102Q350.06952,383.8987,274.98398,408.68558Q280.10843,406.37732,306.14935,399.65338Q316.59015,397.2448,327.10074,395.63904Q348.1219,392.42755,369.422,392.42758"/> </g> <g style="fill:rgb(0,0,0); fill-opacity:1.0; stroke-linejoin: miter"> <path d="M60.819683,662.0498L60.738464,663.8672Q60.4221,671.4601,60.24203,684.22723Q60.400936,690.10144,60.59116,694.909Q60.68628,697.3127,60.789215,699.4498L60.89412,701.5204Q61.00099,703.5237,61.11567,705.26227L60.77407,700.4059L60.50964,695.5633L60.322365,690.7344L60.212246,685.9192L60.17929,681.1178L60.2235,676.3302L60.34486,671.5563L60.54339,666.79614L60.819683,662.0498"/> </g> <g style="fill:rgb(0,0,0); fill-opacity:1.0; stroke-linejoin: miter"> <path d="M369.67194,366.15192L367.1476,366.16202Q342.55106,365.83527,304.41324,373.04282L249.75735,394.0933Q259.85794,388.96283,247.64247,392.62076L228.00116,401.29114Q178.79733,426.23773,141.15625,466.0862Q91.324,522.819,76.13222,570.03406Q58.28497,626.194,58.281464,680.13556Q56.76412,738.6639,83.05032,803.8915L74.091064,786.27Q87.39834,822.3908,103.57632,847.4713Q157.28091,930.8074,242.77542,968.32196Q117.71248,898.92664,77.44379,785.98364Q67.13145,753.8517,62.978752,722.81604Q59.992966,701.85095,64.09777,723.4872Q61.38854,709.1437,61.148968,673.98157Q61.489956,653.7565,64.26373,632.85535L61.60602,652.5571Q66.28486,612.2466,75.02618,587.1608Q77.07021,584.1052,76.16148,590.6186Q85.350586,561.77094,99.43396,535.3701Q70.82496,610.6108,69.27906,636.90283L73.31911,602.83704L70.69519,611.87286Q60.964058,659.29395,62.638264,686.58563L65.96989,727.63574L64.0987,723.4893Q66.92006,743.7472,72.400635,763.26434Q83.361145,802.2997,104.95337,838.3804Q153.45769,917.91595,223.7944,952.5137Q283.92355,972.1193,280.7491,969.4534Q204.77855,944.20435,169.26056,902.535Q239.6819,966.7896,340.81512,978.44Q289.2608,972.9254,280.76007,969.45605Q321.94693,983.6654,371.03107,979.9063L382.0224,979.48157Q365.255,981.6505,310.68005,966.303Q248.49414,943.9707,226.74744,930.35834Q162.71326,893.25757,124.41278,830.44006Q39.867798,685.12006,117.3242,548.683Q79.77915,650.14624,88.11951,686.6721Q93.30383,681.3639,100.8045,623.26227Q106.32828,601.4531,109.51956,592.31604Q129.06268,540.78296,152.78215,512.10315Q187.10654,461.46127,296.46906,418.19296Q337.83484,405.4291,400.42975,408.9827Q473.20938,422.65298,487.0142,431.84106Q453.3486,413.8209,392.40848,405.12943Q437.9511,410.4453,484.1255,425.69397Q511.28452,435.17712,529.06067,447.2544L508.22195,437.15445Q562.6511,466.9689,604.47266,528.3555Q649.9154,596.8552,650.3436,680.1561L651.6229,652.3601L652.4186,661.3198Q658.8435,730.4353,624.3219,806.25574Q620.1399,817.26306,602.0067,842.625Q609.05225,833.8541,603.6953,841.6909Q587.4088,864.38916,582.31775,869.1913Q581.6515,873.9872,528.82947,912.27057Q479.28033,942.14844,469.47208,943.882Q434.45578,959.38617,382.06418,961.8223L390.3272,963.9073Q411.6564,969.37994,454.47278,958.50244Q536.2516,931.76917,548.33044,917.3065Q613.0266,867.6592,645.4579,788.6803Q673.65564,708.41846,659.2905,642.89777Q646.12634,556.2124,588.83374,493.58896L620.95483,527.2631Q627.6715,538.2041,633.3906,549.6297Q642.07983,558.8957,666.96704,648.38184Q663.41235,615.9855,651.65,581.7532Q643.4166,559.40594,636.3186,546.0324L621.92126,520.79553L623.2589,520.7649L609.2435,498.0013L619.68616,508.9573Q586.4083,463.5955,560.3662,439.22003Q490.46652,368.0445,369.67194,366.15192 Z M105.40388,522.147L99.27925,535.30304Q94.536,542.3561,90.19461,549.64087L91.00059,547.77734Q95.35588,540.3061,100.31523,530.89435L105.40388,522.147 M61.593403,652.69037L61.57851,652.8483Q61.519108,653.48016,61.462006,654.1138L61.446156,654.211L61.49414,653.7044L61.526627,653.3662Q61.592182,652.69025,61.593403,652.69037 M61.445267,654.2204L61.365574,655.08484Q61.05199,658.5428,60.82128,662.0176Q60.8808,660.781,60.944637,659.7088Q61.008488,658.63684,61.076664,657.7293L61.145927,656.863Q61.286316,655.21246,61.445267,654.2204 M61.119686,705.3126L61.18297,706.1075Q61.440224,709.2875,61.76339,712.4793Q61.686012,711.88135,61.611202,711.1939L61.53704,710.485Q61.46352,709.7543,61.39257,708.93604Q61.32162,708.1176,61.253246,707.21185L61.185516,706.2841L61.119686,705.3126 M74.03539,759.1372L75.39233,762.86707L78.50925,770.93524L81.58193,780.39935L84.921684,789.6523L88.588,798.8627Q85.47453,792.90045,82.98672,787.5556L79.71777,778.24854L76.707855,768.696L74.03539,759.1372"/> </g> <g style="fill:rgb(0,0,0); fill-opacity:1.0; stroke-linejoin: miter"> <path d="M499.91824,433.09573L501.5868,434.2999Q516.08374,442.04733,529.3259,451.23987Q536.79645,456.48578,540.79254,459.6276Q546.8495,464.25955,554.15155,470.60208L555.90546,471.7694Q541.29944,459.1149,533.6388,453.94083Q516.80994,441.89038,499.91824,433.09573"/> </g> <g style="fill:rgb(0,0,0); fill-opacity:1.0; stroke-linejoin: miter"> <path d="M650.3436,680.1561L650.3436,680.1571"/> </g> </g> </svg>